PathFileType	4	(X/Y/Z)	s01c0101.trc
DataRate	CameraRate	NumFrames	NumMarkers	Units	OrigDataRate	OrigDataStartFrame	OrigNumFrames
200	200	6	47	mm	200	1500	2000
Frame#	Time	racr			lacr			c7			jug			rlel			rdr			llel			ldr			s2			lic			ric			lasi			rasi			rpsi			lpsi			rgt			lgt			rth1			rth2			rth3			rth4			rlfc			rsh1			rsh2			rsh3			rsh4			rlmal			rmmal			rcal			rtoe			rmt5			lth1			lth2			lth4			lth3			llfc			lsh1			lsh2			lsh3			lsh4			llmal			lcal			ltoe			lmt5			SBIKE			LBIKE			RBIKE			
		X1	Y1	Z1	X2	Y2	Z2	X3	Y3	Z3	X4	Y4	Z4	X5	Y5	Z5	X6	Y6	Z6	X7	Y7	Z7	X8	Y8	Z8	X9	Y9	Z9	X10	Y10	Z10	X11	Y11	Z11	X12	Y12	Z12	X13	Y13	Z13	X14	Y14	Z14	X15	Y15	Z15	X16	Y16	Z16	X17	Y17	Z17	X18	Y18	Z18	X19	Y19	Z19	X20	Y20	Z20	X21	Y21	Z21	X22	Y22	Z22	X23	Y23	Z23	X24	Y24	Z24	X25	Y25	Z25	X26	Y26	Z26	X27	Y27	Z27	X28	Y28	Z28	X29	Y29	Z29	X30	Y30	Z30	X31	Y31	Z31	X32	Y32	Z32	X33	Y33	Z33	X34	Y34	Z34	X35	Y35	Z35	X36	Y36	Z36	X37	Y37	Z37	X38	Y38	Z38	X39	Y39	Z39	X40	Y40	Z40	X41	Y41	Z41	X42	Y42	Z42	X43	Y43	Z43	X44	Y44	Z44	X45	Y45	Z45	X46	Y46	Z46	X47	Y47	Z47	
1500	7.5000	503.985624	1324.709317	-123.403358	506.161879	1311.265724	-429.126677	463.077019	1388.253827	-265.951731	461.609684	1224.942987	-267.251121	569.051568	1062.398306	-19.771695	722.272771	850.090107	-75.878720	503.975384	1037.868126	-545.430853	693.912778	878.021175	-456.399197	-60.401869	1170.288971	-230.667387	97.172755	1202.094239	-410.660799	109.937256	1168.987505	-94.362160	98.604720	1144.146086	-395.789735	132.373006	1124.968775	-124.130672	-26.390687	1207.224545	-178.369673	-38.405517	1218.692468	-282.636028	61.660656	1048.360613	-62.698542	44.195126	1072.012728	-443.101407	154.064371	954.080023	-59.831573	215.510615	898.923927	-65.064149	277.686045	833.877503	-77.168113	253.009492	937.238906	-78.273887	326.543440	735.496428	-101.064555	253.284990	646.685060	-70.904655	210.873102	573.862992	-74.398313	159.689780	501.075085	-81.889404	253.341343	547.623814	-109.128209	86.834344	412.465765	-96.067686	130.231906	399.830177	-172.655393	49.918695	431.957938	-151.969308	181.949916	194.973776	-140.576649	101.402171	265.811443	-70.109874	142.798070	984.156658	-454.173062	225.690366	961.580821	-448.486695	242.670772	1012.955446	-440.049862	304.279957	929.155429	-436.977996	396.301598	859.419047	-414.918663	347.294420	753.441140	-446.762631	325.793588	669.102262	-444.189099	302.677876	586.766795	-433.405315	379.500177	657.069975	-415.827206	266.377362	462.327601	-421.787370	215.965576	423.909346	-380.599845	491.867049	408.583343	-382.859273	388.944069	382.315685	-450.811207	-228.134910	891.482922	-251.934187	-21.164060	80.255660	-453.858412	-21.269435	80.216660	-53.783065	
1501	7.5050	503.756952	1324.638047	-123.534700	506.562267	1311.493994	-428.846615	463.124159	1388.140952	-265.960666	461.764511	1224.870711	-267.172162	568.813627	1062.312280	-19.861396	722.166728	850.132843	-75.797477	504.693871	1038.300332	-545.635822	693.958379	877.927800	-456.364919	-60.570983	1169.760866	-231.270891	96.965411	1200.955570	-411.220813	109.835893	1169.358999	-94.585255	98.158667	1142.877977	-396.261257	132.378966	1125.249458	-124.686306	-26.752260	1207.064948	-179.135608	-38.692294	1217.755554	-283.665858	62.883387	1049.399385	-62.450087	43.993970	1068.861318	-442.919287	157.176250	956.884173	-59.670106	219.732781	902.886285	-65.075682	282.708225	839.001757	-77.669877	256.203497	941.939186	-78.884967	332.342347	741.731961	-101.664979	257.412990	654.214573	-71.454714	213.757806	582.112198	-74.811895	161.291626	510.281874	-82.232730	255.512141	554.982487	-109.391702	87.006444	422.779100	-96.099888	129.812064	409.266344	-172.854397	50.310745	442.899756	-152.137759	178.200743	203.767003	-140.409977	98.807421	275.850136	-70.160234	141.544267	979.765218	-453.828486	224.442211	955.127371	-448.135329	242.131398	1006.237050	-439.984406	301.747551	921.069757	-436.268658	391.709068	848.908996	-414.576400	343.874666	741.158529	-446.377785	324.383851	656.826392	-443.314323	302.938482	574.291504	-433.099566	378.347404	646.154497	-415.428195	268.762747	450.607080	-421.880879	218.803291	411.639920	-380.321540	494.804580	398.398893	-382.806145	392.040969	371.479335	-450.806232	-228.089323	891.490276	-251.924289	-21.171124	80.232475	-453.838308	-21.255665	80.211166	-53.778148	
1502	7.5100	503.518468	1324.426302	-123.622939	507.010871	1311.612756	-428.581201	463.153678	1388.019780	-266.062623	461.926296	1224.784702	-267.193354	568.459420	1062.197983	-19.785668	722.056868	850.153947	-75.705554	505.281677	1038.623723	-545.899744	694.037266	877.824761	-456.366172	-60.819304	1169.019856	-232.035934	96.797041	1199.511975	-411.953577	109.708741	1169.670364	-94.909404	97.847989	1141.438756	-396.956309	132.480661	1125.645421	-125.330252	-27.119437	1206.875185	-180.063302	-38.950305	1216.733623	-284.768657	63.729979	1050.487919	-62.539843	43.846081	1065.857575	-442.848136	160.346797	959.788083	-59.539009	224.120530	907.182421	-64.943049	288.645030	844.544311	-77.961955	259.379522	946.922824	-79.639190	338.099422	748.298923	-102.231270	261.697241	661.912409	-71.912576	216.300731	590.527655	-75.599966	163.255698	519.549941	-82.496094	258.261909	562.664700	-109.609356	87.635695	433.259669	-96.082272	127.905933	418.561220	-173.603148	51.168443	453.910162	-152.311316	175.107236	212.785920	-140.297075	96.820342	286.207846	-70.172113	140.312631	975.184904	-453.560772	222.922813	948.764454	-447.968808	241.648386	999.311009	-439.932834	299.382574	912.886091	-435.456051	386.920567	838.334562	-414.333026	340.766399	730.272151	-446.260514	322.548405	644.807033	-442.755283	302.762328	562.200113	-432.861779	376.745343	635.456870	-415.067506	270.740243	438.943259	-421.971224	221.100245	400.063273	-380.483544	497.147185	387.854599	-382.677445	394.556479	360.460102	-450.756974	-228.036097	891.482738	-251.900962	-21.149453	80.232785	-453.851109	-21.254783	80.218250	-53.781085	
1503	7.5150	503.285643	1324.189529	-123.698203	507.509372	1311.526200	-428.355267	463.180038	1387.851467	-266.246915	462.018427	1224.619724	-267.253373	568.040694	1061.963294	-19.593096	721.918940	850.185462	-75.576623	505.740960	1038.856245	-546.249018	694.083527	877.665484	-456.350107	-61.034919	1168.239706	-232.822948	96.671185	1197.748616	-412.866564	109.613013	1169.881116	-95.289864	97.712036	1139.900908	-397.877506	132.554162	1126.061617	-125.937492	-27.440929	1206.592901	-181.190229	-39.181314	1215.622292	-285.876218	64.704773	1051.596401	-62.424045	43.874045	1062.839422	-442.830877	163.443623	962.843218	-59.456783	228.457571	911.638411	-64.896680	294.243069	850.466239	-78.249709	262.582951	952.066912	-80.654826	344.039457	755.241657	-102.553105	266.221426	669.766928	-72.376581	219.710895	598.973187	-75.989538	165.651076	528.889077	-82.813591	261.355427	570.396532	-109.827149	88.714025	443.737451	-96.159115	127.118234	427.241836	-174.432210	52.434817	464.962109	-152.497422	172.699337	221.993711	-140.284011	95.571702	296.631929	-70.277590	139.073398	970.436022	-453.378634	221.237766	941.915597	-447.506414	241.228016	992.202093	-439.835885	296.991092	904.486143	-434.553967	381.759687	827.870642	-413.825241	336.931105	719.257543	-446.142685	320.284873	633.595584	-442.677783	301.960538	550.376661	-432.637950	374.790424	625.045519	-415.211407	271.894802	427.130771	-422.039971	222.823320	388.693808	-380.585723	498.932269	377.153173	-382.551820	396.426503	349.379211	-450.702417	-228.008117	891.475589	-251.888425	-21.151203	80.238748	-453.860652	-21.252157	80.208038	-53.784013	
1504	7.5200	503.067101	1323.982584	-123.688764	508.013953	1311.284638	-428.220252	463.182978	1387.649072	-266.540680	462.113942	1224.444051	-267.401595	567.586002	1061.641734	-19.342598	721.830931	850.254552	-75.436651	506.071717	1038.956162	-546.695593	694.149339	877.484854	-456.399778	-61.271495	1167.388250	-233.785110	96.591362	1195.650166	-413.967184	109.530940	1170.131069	-95.695232	97.389974	1138.213220	-398.645056	132.678530	1126.559450	-126.614557	-27.742438	1206.342836	-182.384565	-39.371966	1214.478959	-287.065981	65.585555	1052.711781	-62.381367	44.052713	1059.966285	-442.894135	166.483035	966.025080	-59.392508	232.767305	916.389297	-64.886618	299.831082	856.691729	-78.293496	265.896154	957.432228	-82.200098	350.237922	762.396672	-103.902027	271.088346	677.688880	-72.735002	223.462591	607.599733	-76.387527	168.382958	538.306645	-83.077497	264.676508	578.363556	-110.169190	90.191271	454.327312	-96.283899	128.696074	437.436993	-175.219621	54.044568	476.004927	-152.700604	170.926908	231.471059	-140.381580	94.852485	307.190544	-70.388699	137.783647	965.546423	-453.286500	219.046103	935.304244	-446.835397	240.681528	984.849574	-439.707004	294.388262	895.938751	-433.696589	376.620345	817.337037	-413.709101	332.498348	708.598817	-445.986400	317.613090	622.843465	-442.615785	300.470701	539.186954	-432.572266	372.116698	615.017081	-415.457701	272.520001	415.787272	-422.139272	223.639776	378.097744	-381.428920	500.160342	366.086919	-381.961535	397.701638	338.265564	-450.602357	-228.018018	891.468502	-251.902614	-21.159230	80.202385	-453.844865	-21.243529	80.187802	-53.786790	
1505	7.5250	502.859130	1323.714864	-123.650982	508.477596	1310.949731	-428.174371	463.195969	1387.411009	-266.850362	462.166113	1224.125611	-267.597227	567.071982	1061.301537	-18.994347	721.721420	850.349552	-75.306774	506.288820	1038.873899	-547.161170	694.204266	877.238641	-456.419477	-61.466571	1166.517049	-234.677321	96.561119	1193.201786	-415.262943	109.399446	1170.387878	-96.138460	97.540103	1136.773358	-399.823664	132.724707	1127.029992	-127.325843	-28.093317	1205.976393	-183.637267	-39.494521	1213.428997	-288.190447	66.387383	1053.940054	-62.434578	44.310082	1057.050531	-443.012249	169.474471	969.367379	-59.364362	237.028696	921.455117	-64.924025	305.058269	863.506898	-78.462112	268.803355	963.202794	-83.401042	356.265186	769.864083	-104.555311	276.035983	685.718006	-73.073908	227.936722	616.326806	-76.458506	171.504073	547.686383	-83.513603	268.293844	586.496602	-110.463930	92.058631	465.012862	-96.920554	129.039994	446.649698	-174.949731	55.939055	487.002246	-153.020312	169.925795	241.169798	-140.359045	94.822955	317.930615	-70.486572	136.389857	960.553343	-453.283940	217.297551	928.381566	-446.563023	240.164250	977.116992	-439.797912	291.727254	887.217599	-432.745120	371.300441	806.946720	-413.475349	327.498712	698.246448	-445.894477	314.108250	612.494368	-442.893382	298.357785	528.275955	-432.571026	369.016741	605.231478	-415.760072	272.477559	404.417821	-422.116488	223.729443	366.370515	-381.274962	500.555023	355.319188	-382.271696	398.223998	327.181519	-450.555628	-228.036069	891.445509	-251.960710	-21.140866	80.226578	-453.865694	-21.227094	80.199101	-53.799285	
